<?xml version="1.0" standalone="no"?>
<!DOCTYPE svg PUBLIC "-//W3C//DTD SVG 20010904//EN"
 "http://www.w3.org/TR/2001/REC-SVG-20010904/DTD/svg10.dtd">
<svg version="1.0" xmlns="http://www.w3.org/2000/svg"
 width="500.000000pt" height="500.000000pt" viewBox="0 0 500.000000 500.000000"
 preserveAspectRatio="xMidYMid meet">
<metadata>
Created by potrace 1.14, written by Peter Selinger 2001-2017
</metadata>
<g transform="translate(0.000000,500.000000) scale(0.100000,-0.100000)"
fill="#000000" stroke="none">
<path d="M2300 4698 c-64 -7 -95 -11 -175 -23 -58 -9 -240 -54 -310 -77 -85
-27 -295 -117 -327 -140 -14 -10 -29 -18 -33 -18 -32 0 -314 -195 -414 -286
-131 -118 -341 -354 -341 -382 0 -6 -4 -12 -9 -14 -11 -4 -93 -135 -145 -231
-92 -171 -195 -475 -220 -647 -7 -51 -16 -120 -21 -160 -6 -45 -7 -397 -1
-430 3 -14 7 -52 11 -85 3 -33 8 -69 11 -80 2 -11 6 -31 8 -45 9 -54 38 -165
62 -243 26 -81 110 -293 125 -312 4 -5 24 -41 44 -80 183 -351 524 -690 895
-888 199 -106 500 -207 692 -233 24 -3 63 -10 88 -14 72 -14 465 -10 555 5
138 23 147 25 261 54 268 70 565 212 754 361 25 19 49 38 55 42 34 24 189 165
235 214 217 233 384 510 484 804 87 256 115 437 114 722 0 108 -5 220 -9 250
-5 29 -11 71 -15 93 -10 70 -32 167 -59 260 -247 856 -995 1482 -1888 1581
-82 9 -350 10 -427 2z"/>
</g>
</svg>
